<?xml version="1.0" encoding="UTF-8"?>
<svg xmlns="http://www.w3.org/2000/svg" xmlns:xlink="http://www.w3.org/1999/xlink" width="810pt" height="809.999993pt" viewBox="0 0 810 809.999993" version="1.2">
<defs>
<clipPath id="clip1">
  <path d="M 163 170 L 643 170 L 643 658.875 L 163 658.875 Z M 163 170 "/>
</clipPath>
</defs>
<g id="surface1">
<g clip-path="url(#clip1)" clip-rule="nonzero">
<path style=" stroke:none;fill-rule:nonzero;fill:rgb(94.509888%,61.569214%,25.878906%);fill-opacity:1;" d="M 380.175781 514.570312 C 368.5625 505.984375 357.53125 498.570312 347.28125 490.179688 C 281.488281 436.515625 265.085938 357.777344 288.515625 277.1875 C 297.105469 247.621094 311.359375 220.984375 334.003906 199.519531 C 385.058594 151.125 456.316406 163.90625 487.066406 227.035156 C 499.367188 252.304688 503.367188 279.429688 506.589844 306.945312 C 513.714844 369 500.246094 426.757812 472.328125 481.789062 C 471.742188 482.960938 471.351562 484.324219 470.277344 487.253906 C 477.011719 487.835938 483.261719 488.03125 489.410156 488.910156 C 520.941406 493.007812 549.542969 485.300781 576.191406 468.617188 C 588.292969 461.007812 600.984375 454.371094 613.285156 446.957031 C 624.511719 440.125 629.78125 444.320312 635.054688 453.394531 C 645.207031 470.859375 648.035156 497.984375 623.242188 513.402344 C 591.613281 533.109375 557.15625 542.867188 520.453125 543.160156 C 497.023438 543.355469 473.597656 540.039062 450.167969 538.085938 C 444.703125 537.597656 440.601562 536.914062 436.304688 542.769531 C 384.277344 614.871094 312.722656 651.65625 224.773438 658 C 212.863281 658.875 200.953125 658.484375 188.945312 658.292969 C 180.355469 658.097656 173.816406 654.289062 171.179688 645.605469 C 168.640625 637.214844 165.226562 628.824219 164.152344 620.140625 C 162.199219 604.433594 168.933594 597.699219 184.847656 599.261719 C 210.8125 601.894531 235.898438 598.578125 260.5 590.480469 C 306.574219 575.453125 344.546875 547.648438 380.175781 514.570312 Z M 409.460938 471.933594 C 426.15625 447.152344 447.335938 387.144531 451.242188 352.800781 C 454.5625 323.335938 458.074219 293.773438 451.046875 264.40625 C 443.921875 234.839844 419.320312 222.839844 391.304688 234.839844 C 368.464844 244.597656 356.554688 263.625 349.136719 285.96875 C 340.542969 312.117188 338.789062 339.335938 338.789062 366.65625 C 338.789062 415.539062 363.679688 452.808594 409.460938 471.933594 Z M 424.398438 477.105469 C 426.640625 477.789062 428.203125 478.277344 429.863281 478.765625 C 435.136719 480.128906 440.601562 481.007812 445.675781 482.960938 C 452.804688 485.691406 456.414062 483.738281 460.027344 476.910156 C 488.335938 424.320312 503.660156 369.097656 496.339844 308.894531 C 493.117188 282.0625 488.238281 255.625 474.179688 231.914062 C 462.566406 212.300781 446.359375 198.351562 423.519531 193.667969 C 383.984375 185.664062 351.867188 199.714844 327.464844 229.960938 C 293.296875 272.210938 284.023438 321.480469 292.03125 374.460938 C 301.304688 435.636719 344.253906 469.398438 392.671875 499.546875 C 394.527344 497.203125 395.601562 495.839844 396.480469 494.472656 C 397.554688 492.8125 398.429688 491.15625 399.699219 489.007812 C 358.3125 469.59375 337.519531 435.636719 330.589844 392.316406 C 324.144531 351.828125 328.734375 312.117188 341.519531 273.28125 C 347.671875 254.648438 356.554688 237.476562 371.878906 224.402344 C 388.277344 210.351562 406.632812 205.863281 427.03125 213.375 C 447.433594 220.984375 458.074219 236.5 461.492188 257.769531 C 470.082031 310.75 464.226562 362.460938 448.117188 413.199219 C 441.480469 434.566406 432.695312 455.152344 424.398438 477.105469 Z M 177.234375 619.75 C 177.820312 635.363281 179.671875 637.410156 192.363281 637.800781 C 201.246094 638.09375 210.128906 638.191406 218.914062 637.996094 C 292.617188 636.53125 353.332031 605.214844 406.4375 556.527344 C 413.464844 550.085938 418.832031 541.890625 425.375 534.085938 C 415.515625 530.378906 407.703125 527.058594 399.601562 524.71875 C 397.066406 523.9375 392.769531 524.71875 391.109375 526.574219 C 364.363281 556.625 330.394531 576.625 296.226562 596.726562 C 270.261719 611.945312 242.441406 619.359375 212.667969 619.847656 C 200.855469 619.847656 189.042969 619.75 177.234375 619.75 Z M 623.046875 463.835938 C 604.792969 473.984375 587.027344 484.128906 568.96875 493.691406 C 537.339844 510.472656 503.5625 514.667969 468.714844 508.035156 C 459.636719 506.277344 455.4375 508.523438 453.292969 519.644531 C 477.304688 520.71875 500.636719 523.253906 523.964844 522.574219 C 559.984375 521.597656 594.25 513.5 623.144531 489.886719 C 634.664062 480.519531 634.664062 475.933594 623.046875 463.835938 Z M 406.242188 506.472656 C 413.757812 508.816406 420.296875 510.570312 426.640625 512.914062 C 435.914062 516.425781 441.480469 513.984375 442.945312 503.351562 C 432.988281 500.621094 423.03125 497.789062 412.976562 494.960938 C 410.828125 498.765625 408.875 501.984375 406.242188 506.472656 Z M 406.242188 506.472656 "/>
</g>
</g>
</svg>
